<svg xmlns="http://www.w3.org/2000/svg" width="1049.368" height="435.483" viewBox="0 0 1049.368 435.483">
  <g id="Background_Banner" data-name="Background Banner" transform="translate(0)">
    <g id="Capa_1" data-name="Capa 1" transform="translate(2.5 2.5)">
      <rect id="Rectángulo_5" data-name="Rectángulo 5" width="398.766" height="284.34" rx="34.2" transform="translate(499.459 123.595)" fill="#eceff0" stroke="#2b3d4e" stroke-width="5"/>
      <rect id="Rectángulo_6" data-name="Rectángulo 6" width="340.167" height="227.616" transform="translate(527.427 150.055)" fill="#eceff0" stroke="#2b3d4e" stroke-width="5"/>
      <path id="Trazado_65" data-name="Trazado 65" d="M354.89,302.19H794.406v12.891a10.514,10.514,0,0,1-10.513,10.513H365.4a10.513,10.513,0,0,1-10.513-10.513Z" transform="translate(123.773 104.889)" fill="#eceff0" stroke="#2b3d4e" stroke-width="5"/>
      <path id="Trazado_66" data-name="Trazado 66" d="M489.554,302.83h75.415A11.274,11.274,0,0,1,553.694,314.1h-52.88A11.274,11.274,0,0,1,489.54,302.83h0Z" transform="translate(172.023 105.118)" fill="#eceff0" stroke="#2b3d4e" stroke-width="5"/>
      <line id="Línea_8" data-name="Línea 8" x2="20.891" transform="translate(557.569 176.746)" fill="none" stroke="#2b3d4e" stroke-width="5"/>
      <circle id="Elipse_6" data-name="Elipse 6" cx="1.752" cy="1.752" r="1.752" transform="translate(576.708 174.994)" fill="#eceff0" stroke="#2b3d4e" stroke-width="1"/>
      <circle id="Elipse_7" data-name="Elipse 7" cx="1.752" cy="1.752" r="1.752" transform="translate(555.816 174.994)" fill="#eceff0" stroke="#2b3d4e" stroke-width="1"/>
      <line id="Línea_9" data-name="Línea 9" x2="63.787" transform="translate(605.042 176.746)" fill="none" stroke="#2b3d4e" stroke-width="5"/>
      <line id="Línea_10" data-name="Línea 10" x2="63.787" transform="translate(679.18 176.746)" fill="none" stroke="#2b3d4e" stroke-width="5"/>
      <line id="Línea_11" data-name="Línea 11" x2="44.947" transform="translate(606.795 213.285)" fill="none" stroke="#2b3d4e" stroke-width="5"/>
      <line id="Línea_12" data-name="Línea 12" x2="44.947" transform="translate(662.717 213.285)" fill="none" stroke="#2b3d4e" stroke-width="5"/>
      <line id="Línea_13" data-name="Línea 13" x2="15.322" transform="translate(718.504 213.285)" fill="none" stroke="#2b3d4e" stroke-width="5"/>
      <line id="Línea_14" data-name="Línea 14" x2="44.947" transform="translate(607.039 286.377)" fill="none" stroke="#2b3d4e" stroke-width="5"/>
      <line id="Línea_15" data-name="Línea 15" x2="44.947" transform="translate(607.813 359.469)" fill="none" stroke="#2b3d4e" stroke-width="5"/>
      <line id="Línea_16" data-name="Línea 16" x2="44.947" transform="translate(662.962 286.377)" fill="none" stroke="#2b3d4e" stroke-width="5"/>
      <line id="Línea_17" data-name="Línea 17" x2="15.322" transform="translate(718.749 286.377)" fill="none" stroke="#2b3d4e" stroke-width="5"/>
      <line id="Línea_18" data-name="Línea 18" x2="86.091" transform="translate(606.795 249.838)" fill="none" stroke="#2b3d4e" stroke-width="5"/>
      <line id="Línea_19" data-name="Línea 19" x2="100.856" transform="translate(704.432 249.838)" fill="none" stroke="#2b3d4e" stroke-width="5"/>
      <line id="Línea_20" data-name="Línea 20" x2="86.091" transform="translate(607.433 322.93)" fill="none" stroke="#2b3d4e" stroke-width="5"/>
      <line id="Línea_21" data-name="Línea 21" x2="100.87" transform="translate(705.056 322.93)" fill="none" stroke="#2b3d4e" stroke-width="5"/>
      <circle id="Elipse_8" data-name="Elipse 8" cx="1.752" cy="1.752" r="1.752" transform="translate(667.078 174.994)" fill="#eceff0" stroke="#2b3d4e" stroke-width="1"/>
      <circle id="Elipse_9" data-name="Elipse 9" cx="1.752" cy="1.752" r="1.752" transform="translate(603.29 174.994)" fill="#eceff0" stroke="#2b3d4e" stroke-width="1"/>
      <line id="Línea_22" data-name="Línea 22" x2="20.891" transform="translate(557.569 213.285)" fill="none" stroke="#2b3d4e" stroke-width="5"/>
      <circle id="Elipse_10" data-name="Elipse 10" cx="1.752" cy="1.752" r="1.752" transform="translate(576.708 211.533)" fill="#eceff0" stroke="#2b3d4e" stroke-width="1"/>
      <circle id="Elipse_11" data-name="Elipse 11" cx="1.752" cy="1.752" r="1.752" transform="translate(555.816 211.533)" fill="#eceff0" stroke="#2b3d4e" stroke-width="1"/>
      <line id="Línea_23" data-name="Línea 23" x2="20.891" transform="translate(557.555 249.838)" fill="none" stroke="#2b3d4e" stroke-width="5"/>
      <circle id="Elipse_12" data-name="Elipse 12" cx="1.752" cy="1.752" r="1.752" transform="translate(576.708 248.086)" fill="#eceff0" stroke="#2b3d4e" stroke-width="1"/>
      <circle id="Elipse_13" data-name="Elipse 13" cx="1.752" cy="1.752" r="1.752" transform="translate(555.803 248.086)" fill="#eceff0" stroke="#2b3d4e" stroke-width="1"/>
      <line id="Línea_24" data-name="Línea 24" x2="20.891" transform="translate(557.569 286.377)" fill="none" stroke="#2b3d4e" stroke-width="5"/>
      <circle id="Elipse_14" data-name="Elipse 14" cx="1.752" cy="1.752" r="1.752" transform="translate(576.708 284.625)" fill="#eceff0" stroke="#2b3d4e" stroke-width="1"/>
      <circle id="Elipse_15" data-name="Elipse 15" cx="1.752" cy="1.752" r="1.752" transform="translate(555.816 284.625)" fill="#eceff0" stroke="#2b3d4e" stroke-width="1"/>
      <line id="Línea_25" data-name="Línea 25" x2="20.891" transform="translate(557.569 322.93)" fill="none" stroke="#2b3d4e" stroke-width="5"/>
      <circle id="Elipse_16" data-name="Elipse 16" cx="1.752" cy="1.752" r="1.752" transform="translate(576.708 321.178)" fill="#eceff0" stroke="#2b3d4e" stroke-width="1"/>
      <circle id="Elipse_17" data-name="Elipse 17" cx="1.752" cy="1.752" r="1.752" transform="translate(555.816 321.178)" fill="#eceff0" stroke="#2b3d4e" stroke-width="1"/>
      <line id="Línea_26" data-name="Línea 26" x2="20.891" transform="translate(557.569 359.469)" fill="none" stroke="#2b3d4e" stroke-width="5"/>
      <circle id="Elipse_18" data-name="Elipse 18" cx="1.752" cy="1.752" r="1.752" transform="translate(576.708 357.717)" fill="#eceff0" stroke="#2b3d4e" stroke-width="1"/>
      <circle id="Elipse_19" data-name="Elipse 19" cx="1.752" cy="1.752" r="1.752" transform="translate(555.816 357.717)" fill="#eceff0" stroke="#2b3d4e" stroke-width="1"/>
      <circle id="Elipse_20" data-name="Elipse 20" cx="1.752" cy="1.752" r="1.752" transform="translate(677.428 174.994)" fill="#eceff0" stroke="#2b3d4e" stroke-width="1"/>
      <circle id="Elipse_21" data-name="Elipse 21" cx="1.752" cy="1.752" r="1.752" transform="translate(741.215 174.994)" fill="#eceff0" stroke="#2b3d4e" stroke-width="1"/>
      <circle id="Elipse_22" data-name="Elipse 22" cx="1.752" cy="1.752" r="1.752" transform="translate(605.042 211.533)" fill="#eceff0" stroke="#2b3d4e" stroke-width="1"/>
      <circle id="Elipse_23" data-name="Elipse 23" cx="1.752" cy="1.752" r="1.752" transform="translate(649.99 211.533)" fill="#eceff0" stroke="#2b3d4e" stroke-width="1"/>
      <circle id="Elipse_24" data-name="Elipse 24" cx="1.752" cy="1.752" r="1.752" transform="translate(661.766 211.533)" fill="#eceff0" stroke="#2b3d4e" stroke-width="1"/>
      <circle id="Elipse_25" data-name="Elipse 25" cx="1.752" cy="1.752" r="1.752" transform="translate(705.912 211.533)" fill="#eceff0" stroke="#2b3d4e" stroke-width="1"/>
      <circle id="Elipse_26" data-name="Elipse 26" cx="1.752" cy="1.752" r="1.752" transform="translate(716.752 211.533)" fill="#eceff0" stroke="#2b3d4e" stroke-width="1"/>
      <circle id="Elipse_27" data-name="Elipse 27" cx="1.752" cy="1.752" r="1.752" transform="translate(732.074 211.533)" fill="#eceff0" stroke="#2b3d4e" stroke-width="1"/>
      <circle id="Elipse_28" data-name="Elipse 28" cx="1.752" cy="1.752" r="1.752" transform="translate(605.042 248.086)" fill="#eceff0" stroke="#2b3d4e" stroke-width="1"/>
      <circle id="Elipse_29" data-name="Elipse 29" cx="1.752" cy="1.752" r="1.752" transform="translate(605.042 284.625)" fill="#eceff0" stroke="#2b3d4e" stroke-width="1"/>
      <circle id="Elipse_30" data-name="Elipse 30" cx="1.752" cy="1.752" r="1.752" transform="translate(650.234 284.625)" fill="#eceff0" stroke="#2b3d4e" stroke-width="1"/>
      <circle id="Elipse_31" data-name="Elipse 31" cx="1.752" cy="1.752" r="1.752" transform="translate(691.134 248.086)" fill="#eceff0" stroke="#2b3d4e" stroke-width="1"/>
      <circle id="Elipse_32" data-name="Elipse 32" cx="1.752" cy="1.752" r="1.752" transform="translate(660.965 284.625)" fill="#eceff0" stroke="#2b3d4e" stroke-width="1"/>
      <circle id="Elipse_33" data-name="Elipse 33" cx="1.752" cy="1.752" r="1.752" transform="translate(702.679 248.086)" fill="#eceff0" stroke="#2b3d4e" stroke-width="1"/>
      <circle id="Elipse_34" data-name="Elipse 34" cx="1.752" cy="1.752" r="1.752" transform="translate(706.157 284.625)" fill="#eceff0" stroke="#2b3d4e" stroke-width="1"/>
      <circle id="Elipse_35" data-name="Elipse 35" cx="1.752" cy="1.752" r="1.752" transform="translate(732.074 284.625)" fill="#eceff0" stroke="#2b3d4e" stroke-width="1"/>
      <circle id="Elipse_36" data-name="Elipse 36" cx="1.752" cy="1.752" r="1.752" transform="translate(716.996 284.625)" fill="#eceff0" stroke="#2b3d4e" stroke-width="1"/>
      <circle id="Elipse_37" data-name="Elipse 37" cx="1.752" cy="1.752" r="1.752" transform="translate(691.772 321.178)" fill="#eceff0" stroke="#2b3d4e" stroke-width="1"/>
      <circle id="Elipse_38" data-name="Elipse 38" cx="1.752" cy="1.752" r="1.752" transform="translate(703.304 321.178)" fill="#eceff0" stroke="#2b3d4e" stroke-width="1"/>
      <circle id="Elipse_39" data-name="Elipse 39" cx="1.752" cy="1.752" r="1.752" transform="translate(605.681 321.178)" fill="#eceff0" stroke="#2b3d4e" stroke-width="1"/>
      <circle id="Elipse_40" data-name="Elipse 40" cx="1.752" cy="1.752" r="1.752" transform="translate(651.008 357.717)" fill="#eceff0" stroke="#2b3d4e" stroke-width="1"/>
      <circle id="Elipse_41" data-name="Elipse 41" cx="1.752" cy="1.752" r="1.752" transform="translate(606.061 357.717)" fill="#eceff0" stroke="#2b3d4e" stroke-width="1"/>
      <path id="Trazado_67" data-name="Trazado 67" d="M153.952,62.88c-2.214-8.231-18.745-16.3-47.65-16.3s-45.423,8.15-47.637,16.3a1.847,1.847,0,0,0-.285.937v70.932a1.874,1.874,0,0,0,.217.869C60.866,145,81.118,152,106.3,152s45.355-6.968,47.691-16.3a1.766,1.766,0,0,0,.244-.924V63.817A1.847,1.847,0,0,0,153.952,62.88Zm-3.708,48.9a5.212,5.212,0,0,1-.217.706c-.082.19-.177.38-.272.571a5.844,5.844,0,0,1-.448.706c-.177.244-.272.353-.421.53a8.672,8.672,0,0,1-.693.747c-.149.149-.326.3-.5.448a10.1,10.1,0,0,1-1.005.815c-.149.122-.326.231-.489.353-.435.3-.883.6-1.358.883l-.408.231c-.571.326-1.168.638-1.807.951l-.258.122c-.72.34-1.467.666-2.268.992h0a74.056,74.056,0,0,1-16.422,4.157h-.1c-1.263.19-2.554.353-3.885.5h-.666c-1.155.122-2.323.244-3.532.326l-1.7.1-2.717.149c-1.521,0-3.07.068-4.659.068s-3.138,0-4.659-.081c-.924,0-1.834-.1-2.717-.136l-1.793-.068c-1.209-.1-2.377-.2-3.545-.326h-.666c-1.358-.149-2.622-.312-3.885-.5h-.1a74.478,74.478,0,0,1-16.409-4.156h0c-.8-.326-1.562-.666-2.282-.992l-.285-.217c-.652-.312-1.25-.625-1.82-.951l-.408-.231c-.489-.3-.937-.6-1.358-.9l-.5-.34c-.367-.272-.693-.543-1.005-.815l-.5-.448c-.244-.258-.475-.5-.693-.761l-.5-.5a6.617,6.617,0,0,1-.435-.706,3.628,3.628,0,0,1-.272-.571,4.6,4.6,0,0,1-.231-.693,4.224,4.224,0,0,1-.149-.924,3.545,3.545,0,0,1,0-.652,2.037,2.037,0,0,0,0-.856V95.059l.177.136a15.5,15.5,0,0,0,1.358,1.1c7.213,5.433,21.652,9.7,42.584,9.7s35.317-4.211,42.5-9.644a19.807,19.807,0,0,0,1.589-1.358h0v14.29a2.038,2.038,0,0,0,0,.856,2.866,2.866,0,0,1-.1,1.576Zm.163-39.663V86.284a2,2,0,0,0,0,.856,3.288,3.288,0,0,1,0,.638,3.775,3.775,0,0,1-.163.937,4.522,4.522,0,0,1-.217.693c-.081.19-.177.38-.272.57a6.791,6.791,0,0,1-.448.706c-.122.177-.272.353-.421.53a7.06,7.06,0,0,1-.693.747,5.434,5.434,0,0,1-.5.462c-.312.272-.638.543-1.005.815l-.489.34c-.435.3-.883.6-1.358.9l-.408.231c-.571.312-1.168.638-1.807.951l-.258.109c-.72.34-1.467.679-2.268,1.005h0a74,74,0,0,1-16.422,4.17h-.1c-1.263.177-2.554.353-3.885.489l-.706.054c-1.155.122-2.323.231-3.532.312l-1.7.1c-.91,0-1.807.122-2.717.149-1.521,0-3.07.081-4.659.081s-3.138,0-4.659-.081l-2.717-.149-1.752-.054c-1.209-.1-2.377-.2-3.545-.326h-.666c-1.358-.149-2.622-.312-3.885-.5h-.1a73.717,73.717,0,0,1-16.409-4.156h0c-.8-.326-1.562-.652-2.282-.992l-.285-.217c-.652-.312-1.25-.625-1.82-.951l-.408-.231c-.489-.285-.937-.584-1.358-.883l-.5-.353c-.367-.272-.693-.543-1.005-.815l-.584-.435c-.244-.244-.475-.5-.693-.747l-.421-.543a6.792,6.792,0,0,1-.435-.72,3.506,3.506,0,0,1-.272-.557,5.34,5.34,0,0,1-.231-.706,4.224,4.224,0,0,1-.149-.924,3.286,3.286,0,0,1,0-.638,2,2,0,0,0,0-.856V72.049l.747.625c.136.109.258.231.407.34.57.448,1.2.9,1.874,1.358l.435.272c.57.353,1.168.693,1.793,1.032l.706.367a22.3,22.3,0,0,0,2.2,1.046l.367.163q1.358.571,2.853,1.1l.842.285c.788.272,1.6.516,2.459.774l.91.258c1.127.312,2.282.611,3.491.883l.516.1c1.073.245,2.187.462,3.328.666l1.182.19c1.087.177,2.2.34,3.355.489l.869.122c1.358.177,2.907.326,4.428.448l1.141.081c1.209.081,2.445.163,3.722.217h1.358c1.657,0,3.341.1,5.08.1s3.437,0,5.08-.1h1.358c1.263,0,2.513-.136,3.722-.217l1.141-.081c1.521-.122,3-.272,4.428-.448l.869-.122c1.155-.149,2.268-.312,3.355-.489l1.182-.19c1.141-.2,2.255-.421,3.314-.666l.516-.1c1.223-.272,2.377-.571,3.5-.883l.91-.258c.842-.258,1.671-.5,2.459-.774l.842-.285c.992-.353,1.942-.72,2.839-1.1l.38-.163c.761-.34,1.508-.679,2.2-1.046l.706-.367c.625-.34,1.223-.679,1.779-1.032l.448-.272a22.829,22.829,0,0,0,1.874-1.358l.408-.34ZM106.3,50.4c26,0,44.105,7.58,44.105,14.385S132.3,79.153,106.3,79.153,62.211,71.6,62.211,64.809,80.317,50.4,106.3,50.4Zm44.105,83.782a1.8,1.8,0,0,0,0,.258c-1.087,6.642-19.017,13.733-44.037,13.733s-42.937-7.091-44.024-13.733a1.644,1.644,0,0,0,0-.244V118.055l.177.149a14.412,14.412,0,0,0,1.358,1.087C71.094,124.725,85.533,129,106.465,129s35.317-4.211,42.5-9.644A17.323,17.323,0,0,0,150.556,118h0Z" transform="translate(17.524 13.295)" fill="#eceff0"/>
      <path id="Trazado_68" data-name="Trazado 68" d="M791.742,328.381H714.48a38.631,38.631,0,1,1,77.262,0Z" transform="translate(252.626 100.431)" fill="rgba(0,0,0,0)" stroke="#2b3d4e" stroke-width="5"/>
      <line id="Línea_27" data-name="Línea 27" y2="10.527" transform="translate(1005.737 390.181)" fill="none" stroke="#2b3d4e" stroke-width="5"/>
      <rect id="Rectángulo_7" data-name="Rectángulo 7" width="463.653" height="327.576" rx="34.2" transform="translate(0 8.571)" fill="#eceff0" stroke="#2b3d4e" stroke-width="5"/>
      <rect id="Rectángulo_8" data-name="Rectángulo 8" width="385.78" height="232.031" rx="34.2" transform="translate(38.93 36.077)" fill="#eceff0" stroke="#2b3d4e" stroke-width="5"/>
      <circle id="Elipse_42" data-name="Elipse 42" cx="10.187" cy="10.187" r="10.187" transform="translate(221.639 293.101)" fill="#eceff0" stroke="#2b3d4e" stroke-width="5"/>
      <path id="Trazado_69" data-name="Trazado 69" d="M224.655,325.985h-75.6l8.829-75.6h57.946Z" transform="translate(50.014 86.324)" fill="#eceff0" stroke="#2b3d4e" stroke-width="5"/>
      <path id="Trazado_70" data-name="Trazado 70" d="M129.518,306.45H265.65a10.378,10.378,0,0,1,10.378,10.378v7.023H119.14v-7.023A10.378,10.378,0,0,1,129.518,306.45Z" transform="translate(39.296 106.415)" fill="#eceff0" stroke="#2b3d4e" stroke-width="5"/>
      <circle id="Elipse_43" data-name="Elipse 43" cx="75.646" cy="75.646" r="75.646" transform="translate(407.12)" fill="#eceff0" stroke="#2b3d4e" stroke-width="5"/>
      <line id="Línea_28" data-name="Línea 28" x1="16.966" y2="71.679" transform="translate(474.276 39.894)" fill="#fff" stroke="#2b3d4e" stroke-width="5"/>
      <line id="Línea_29" data-name="Línea 29" y1="26.773" x2="26.773" transform="translate(437.533 49.905)" fill="#fff" stroke="#2b3d4e" stroke-width="5"/>
      <line id="Línea_30" data-name="Línea 30" x1="26.773" y1="26.786" transform="translate(437.533 71.869)" fill="#fff" stroke="#2b3d4e" stroke-width="5"/>
      <line id="Línea_31" data-name="Línea 31" x2="26.773" y2="26.786" transform="translate(501.605 49.946)" fill="#fff" stroke="#2b3d4e" stroke-width="5"/>
      <line id="Línea_32" data-name="Línea 32" y1="26.773" x2="26.773" transform="translate(501.605 72.005)" fill="#fff" stroke="#2b3d4e" stroke-width="5"/>
      <rect id="Rectángulo_9" data-name="Rectángulo 9" width="77.697" height="138.903" rx="12.46" transform="translate(16.653 290.384)" fill="#eceff0" stroke="#2b3d4e" stroke-width="5"/>
      <rect id="Rectángulo_10" data-name="Rectángulo 10" width="77.697" height="97.8" transform="translate(16.436 307.663)" fill="#eceff0" stroke="#2b3d4e" stroke-width="4"/>
      <circle id="Elipse_44" data-name="Elipse 44" cx="4.347" cy="4.347" r="4.347" transform="translate(52.296 413.979)" fill="#eceff0" stroke="#2b3d4e" stroke-width="2"/>
      <line id="Línea_33" data-name="Línea 33" x2="41.239" transform="translate(34.665 299.173)" fill="#fff" stroke="#2b3d4e" stroke-width="2"/>
    </g>
  </g>
</svg>
