<svg xmlns="http://www.w3.org/2000/svg" xmlns:xlink="http://www.w3.org/1999/xlink" width="92" height="92" viewBox="0 0 92 92">
  <defs>
    <clipPath id="clip-path">
      <circle id="Elipse_5" data-name="Elipse 5" cx="46" cy="46" r="46" transform="translate(1220 6157)" fill="none" stroke="#707070" stroke-width="1"/>
    </clipPath>
  </defs>
  <g id="Enmascarar_grupo_3" data-name="Enmascarar grupo 3" transform="translate(-1220 -6157)" clip-path="url(#clip-path)">
    <g id="sobre-cerrado-en-un-circulo" transform="translate(1220 6157)">
      <g id="Grupo_6" data-name="Grupo 6">
        <path id="Trazado_52" data-name="Trazado 52" d="M46,92a44.979,44.979,0,0,1-12.236-1.656A46.664,46.664,0,0,1,22.77,85.7,46.061,46.061,0,0,1,6.3,69.23,46.649,46.649,0,0,1,1.656,58.236a46.033,46.033,0,0,1,0-24.472A46.645,46.645,0,0,1,6.3,22.77,46.061,46.061,0,0,1,22.77,6.3,46.645,46.645,0,0,1,33.764,1.656a45.937,45.937,0,0,1,30.13,1.978A45.951,45.951,0,0,1,88.366,28.106a45.937,45.937,0,0,1,1.978,30.13A46.68,46.68,0,0,1,85.7,69.23,46.061,46.061,0,0,1,69.23,85.7a46.647,46.647,0,0,1-10.994,4.646A44.975,44.975,0,0,1,46,92ZM68.172,27.048H24.564a1.593,1.593,0,0,0-1.1.414,1.468,1.468,0,0,0-.46,1.15v4.876q0,.368.276.368L46.184,46.92l.184.092a.376.376,0,0,0,.276-.092L68.816,33.856a.7.7,0,0,1,.276-.092.708.708,0,0,0,.276-.092.325.325,0,0,0,.368-.368V28.612a1.467,1.467,0,0,0-.46-1.15A1.594,1.594,0,0,0,68.172,27.048Zm-31.28,19.6a.375.375,0,0,0,.092-.276c0-.184-.061-.276-.184-.276L23.644,38.548a.593.593,0,0,0-.46,0q-.184,0-.184.276V58.6a.36.36,0,0,0,.276.368h.184q.184,0,.184-.092ZM52.9,48.116q-.092-.277-.46-.092l-5.06,2.944a1.828,1.828,0,0,1-1.932,0l-4.416-2.484q-.276-.184-.46,0L23.736,64.124a.531.531,0,0,0-.092.368q0,.092.184.276a3.02,3.02,0,0,0,.736.184H67.712a.528.528,0,0,0,.368-.184.729.729,0,0,0-.092-.46ZM69.46,38.18h-.368L56.58,45.632c-.122,0-.184.092-.184.276q-.092.092.092.276L69,59.708c.123.123.215.184.276.184h.184c.184-.184.276-.307.276-.368V38.548Q69.736,38.364,69.46,38.18Z" fill="#eceff0"/>
      </g>
    </g>
  </g>
</svg>
