<svg xmlns="http://www.w3.org/2000/svg" xmlns:xlink="http://www.w3.org/1999/xlink" width="92" height="92" viewBox="0 0 92 92">
  <defs>
    <clipPath id="clip-path">
      <circle id="Elipse_3" data-name="Elipse 3" cx="46" cy="46" r="46" transform="translate(914 6157)" fill="none" stroke="#707070" stroke-width="1"/>
    </clipPath>
  </defs>
  <g id="Enmascarar_grupo_5" data-name="Enmascarar grupo 5" transform="translate(-914 -6157)" clip-path="url(#clip-path)">
    <g id="logo-de-github_1_" data-name="logo-de-github (1)" transform="translate(914 6157)">
      <path id="Trazado_57" data-name="Trazado 57" d="M85.829,24.036A45.8,45.8,0,0,0,69.089,7.295,44.992,44.992,0,0,0,46,1.125,45,45,0,0,0,22.91,7.295,45.8,45.8,0,0,0,6.169,24.036,45,45,0,0,0,0,47.124,44.7,44.7,0,0,0,8.775,74.166a45.052,45.052,0,0,0,22.67,16.621,2.681,2.681,0,0,0,2.4-.419,2.342,2.342,0,0,0,.779-1.8q0-.18-.03-3.234t-.03-5.33l-1.378.238a17.573,17.573,0,0,1-3.324.21,25.327,25.327,0,0,1-4.163-.419,9.3,9.3,0,0,1-4.013-1.8,7.6,7.6,0,0,1-2.635-3.683l-.6-1.378a14.967,14.967,0,0,0-1.886-3.054,7.228,7.228,0,0,0-2.605-2.276l-.419-.3a4.4,4.4,0,0,1-.779-.719,3.286,3.286,0,0,1-.539-.839q-.18-.42.3-.69a3.885,3.885,0,0,1,1.737-.268l1.2.179a8.743,8.743,0,0,1,2.965,1.437,9.667,9.667,0,0,1,2.9,3.114,10.558,10.558,0,0,0,3.324,3.744A7.052,7.052,0,0,0,28.569,74.8a17.033,17.033,0,0,0,3.414-.3,11.913,11.913,0,0,0,2.7-.9,9.7,9.7,0,0,1,2.934-6.17,41.011,41.011,0,0,1-6.139-1.078,24.444,24.444,0,0,1-5.63-2.337A16.124,16.124,0,0,1,21.022,60a19.285,19.285,0,0,1-3.144-6.289,29.907,29.907,0,0,1-1.228-8.984,17.47,17.47,0,0,1,4.732-12.339q-2.217-5.45.419-12.218,1.737-.54,5.151.808a36.012,36.012,0,0,1,5,2.306q1.588.957,2.546,1.617a43.257,43.257,0,0,1,23,0l2.276-1.437a32.234,32.234,0,0,1,5.509-2.636q3.174-1.2,4.853-.658,2.694,6.768.478,12.218a17.473,17.473,0,0,1,4.733,12.339,30.241,30.241,0,0,1-1.228,9.014,18.536,18.536,0,0,1-3.173,6.289A16.745,16.745,0,0,1,66.1,64.013a24.491,24.491,0,0,1-5.631,2.336,40.97,40.97,0,0,1-6.139,1.08q3.113,2.694,3.114,8.5V88.57a2.386,2.386,0,0,0,.749,1.8,2.6,2.6,0,0,0,2.366.419,45.046,45.046,0,0,0,22.671-16.62A44.714,44.714,0,0,0,92,47.122,45.033,45.033,0,0,0,85.829,24.036Z" fill="#eceff0"/>
    </g>
  </g>
</svg>
