<svg xmlns="http://www.w3.org/2000/svg" width="99.762" height="92.682" viewBox="0 0 99.762 92.682">
  <g id="Grupo_13" data-name="Grupo 13" transform="translate(-75.226 -172.392)">
    <path id="Trazado_71" data-name="Trazado 71" d="M125.1,180.657H106.127v.1a.1.1,0,0,0-.089-.1H98a3.207,3.207,0,0,0-2.93,3.426v57.394A3.207,3.207,0,0,0,98,244.9H103.2a3.207,3.207,0,0,0,2.929-3.426V216.235a1.959,1.959,0,0,1,1.958-1.958h10.367a3.106,3.106,0,0,0,3.105-3.1V206.1a3.107,3.107,0,0,0-3.105-3.105H108.2a2.073,2.073,0,0,1-2.073-2.073v-5.756a2.074,2.074,0,0,1,2.073-2.073h16.863c2.258,0,4.092-1.5,4.092-3.348v-5.768C129.155,182.141,127.341,180.657,125.1,180.657Z" transform="translate(14.815 6.169)" fill="#db362f"/>
    <path id="Trazado_72" data-name="Trazado 72" d="M141.547,218.069l-.844-2.517L127.2,175.232a3.8,3.8,0,0,0-7.206,2.415L133.776,218.8l-13.764,41.086a3.8,3.8,0,1,0,7.2,2.415l13.566-40.492.8-2.394a3.788,3.788,0,0,0,.138-.541A3.836,3.836,0,0,0,141.547,218.069Z" transform="translate(33.266 0.185)" fill="#122d3e"/>
    <path id="Trazado_73" data-name="Trazado 73" d="M75.4,217.823l.842-2.517,13.509-40.321a3.8,3.8,0,0,1,7.206,2.415L83.174,218.55l13.763,41.084a3.8,3.8,0,0,1-2.4,4.811,3.841,3.841,0,0,1-1.209.2,3.8,3.8,0,0,1-3.6-2.592L76.166,221.559l-.8-2.394a4.037,4.037,0,0,1-.138-.541A3.733,3.733,0,0,1,75.4,217.823Z" transform="translate(0 0)" fill="#122d3e"/>
  </g>
</svg>
