<svg xmlns="http://www.w3.org/2000/svg" xmlns:xlink="http://www.w3.org/1999/xlink" width="92" height="92" viewBox="0 0 92 92">
  <defs>
    <clipPath id="clip-path">
      <circle id="Elipse_1" data-name="Elipse 1" cx="46" cy="46" r="46" transform="translate(608 6157)" fill="none" stroke="#707070" stroke-width="1"/>
    </clipPath>
  </defs>
  <g id="Enmascarar_grupo_1" data-name="Enmascarar grupo 1" transform="translate(-608 -6157)" clip-path="url(#clip-path)">
    <g id="boton-de-logo-del-twitter" transform="translate(608 6157)">
      <g id="Grupo_2" data-name="Grupo 2">
        <path id="Trazado_45" data-name="Trazado 45" d="M46,0A46,46,0,1,0,92,46,46.052,46.052,0,0,0,46,0ZM66.521,35.472c.02.456.031.915.031,1.375,0,13.991-10.647,30.119-30.126,30.119A29.948,29.948,0,0,1,20.2,62.213a21.379,21.379,0,0,0,15.676-4.384,10.6,10.6,0,0,1-9.891-7.354,10.629,10.629,0,0,0,4.78-.178A10.589,10.589,0,0,1,22.27,39.915c0-.044,0-.091,0-.133A10.544,10.544,0,0,0,27.065,41.1a10.6,10.6,0,0,1-3.276-14.136A30.063,30.063,0,0,0,45.611,38.034a10.595,10.595,0,0,1,18.042-9.659,21.134,21.134,0,0,0,6.726-2.57,10.635,10.635,0,0,1-4.662,5.859A21.049,21.049,0,0,0,71.8,30,21.3,21.3,0,0,1,66.521,35.472Z" fill="#eceff0"/>
      </g>
    </g>
  </g>
</svg>
